<svg width="27" height="28" viewBox="0 0 27 28" fill="none" xmlns="http://www.w3.org/2000/svg">
<path fill-rule="evenodd" clip-rule="evenodd" d="M13.5 1.70404C12.1762 0.938275 10.6393 0.5 9 0.5C4.02944 0.5 0 4.52944 0 9.5C0 11.1393 0.438275 12.6762 1.20404 14C0.438275 15.3238 0 16.8607 0 18.5C0 23.4706 4.02944 27.5 9 27.5C10.6393 27.5 12.1762 27.0617 13.5 26.296C14.8238 27.0617 16.3607 27.5 18 27.5C22.9706 27.5 27 23.4706 27 18.5C27 16.8607 26.5617 15.3238 25.796 14C26.5617 12.6762 27 11.1393 27 9.5C27 4.52944 22.9706 0.5 18 0.5C16.3607 0.5 14.8238 0.938275 13.5 1.70404Z" fill="#7DFCA0"/>
</svg>
